PathFileType	4	(X/Y/Z)	../Python\running\Running07\task.trc
DataRate	CameraRate	NumFrames	NumMarkers	Units	OrigDataRate	OrigDataStartFrame	OrigNumFrames
200.000000	200.000000	5	30	mm	200.000000	88	177
Frame#	Time	C7			RBAK			CLAV			STRN			RASI			LASI			PE01			RTH1			RTH2			RTH3			RTB2			RHEE			RD5M			RTOE			LTH2			LTH3			LTB2			LTB3			LHEE			LTOE			LD5M			LPSI			RPSI			RTB1			RTB3			T10			PE03			PE02			LTH1			LTB1			
		X1	Y1	Z1	X2	Y2	Z2	X3	Y3	Z3	X4	Y4	Z4	X5	Y5	Z5	X6	Y6	Z6	X7	Y7	Z7	X8	Y8	Z8	X9	Y9	Z9	X10	Y10	Z10	X11	Y11	Z11	X12	Y12	Z12	X13	Y13	Z13	X14	Y14	Z14	X15	Y15	Z15	X16	Y16	Z16	X17	Y17	Z17	X18	Y18	Z18	X19	Y19	Z19	X20	Y20	Z20	X21	Y21	Z21	X22	Y22	Z22	X23	Y23	Z23	X24	Y24	Z24	X25	Y25	Z25	X26	Y26	Z26	X27	Y27	Z27	X28	Y28	Z28	X29	Y29	Z29	X30	Y30	Z30	

89	0.44	-114.018165588379	1375.288940429688	152.6750183105469	-190.8153839111329	1284.1259765625	218.4143066406251	-3.582756996154787	1287.931518554688	191.506576538086	43.07779693603517	1106.684814453125	188.9458465576172	-17.80848693847657	901.5631713867192	268.4842224121095	-18.69702339172364	867.3485717773442	52.50518417358401	-182.6250305175782	1005.569458007813	163.1296844482422	-8.320019721984867	619.0878906250002	318.3999633789064	38.88047027587892	557.2993774414065	301.4351501464845	42.20502853393556	617.239929199219	317.2839355468751	112.5395584106446	309.0572509765626	298.8296813964845	149.5202636718751	100.1837463378907	207.4603881835939	295.366912841797	71.707878112793	274.7639465332032	326.1195373535157	100.5233917236329	232.9251251220704	-247.8149871826173	606.4985961914065	57.99675750732425	-169.713607788086	603.8296508789065	39.58906936645509	-489.3268127441409	367.1329345703126	98.77407073974615	-441.2453308105471	355.1522521972657	96.21353912353521	-624.2741699218752	299.1100158691407	166.4158935546876	-588.6704711914065	126.9618377685547	173.2225341796876	-611.6983642578127	146.7039642333985	122.584327697754	-198.1983642578126	972.109008789063	123.5721511840821	-202.5551757812501	975.9257202148442	212.0125427246095	138.2176513671876	364.207489013672	297.991180419922	157.4612121582032	288.0589599609376	291.978485107422	-169.0788879394532	1091.686767578125	136.639633178711	-216.4279022216798	950.5933227539067	144.7483978271485	-215.6841125488282	957.894409179688	194.8040466308595	-202.5011291503907	642.849060058594	37.52736282348634	-427.8975830078127	413.7014465332034	81.939811706543	
90	0.445	-97.37866210937506	1374.230590820313	153.5149688720704	-174.5218963623047	1282.372192382813	219.1496887207032	12.77943515777589	1286.847778320313	192.1090545654298	59.30699539184573	1105.989501953125	188.8889617919922	-1.658297657966615	901.0228881835942	268.8565063476564	-1.485254406929017	867.1095581054692	52.83365249633792	-166.6225738525391	1004.368103027344	163.2070465087891	8.650610923767093	617.6184082031252	318.8378906250001	56.30981063842776	556.3298950195315	301.0523681640626	59.16079330444339	616.1480712890627	317.5238342285157	126.9254150390626	307.8098144531251	297.2364501953126	162.4656524658204	99.48342132568365	204.8566284179689	307.3810119628907	68.79041290283206	272.3342590332032	338.3805541992189	97.40599060058599	231.2084960937501	-227.6714172363282	602.995056152344	57.2592697143555	-149.1520690917969	600.7559204101565	40.66454315185548	-472.0949401855471	371.2179260253907	99.61552429199224	-424.3920593261721	357.4862060546876	97.00051879882818	-609.8754882812502	307.3130798339845	168.0526885986329	-576.958190917969	134.4701843261719	174.0344238281251	-599.6915283203127	154.7888793945313	123.3999176025391	-181.5878143310547	970.927612304688	123.3421630859376	-186.650375366211	974.5553588867192	211.8007049560548	153.2120971679688	362.8411254882814	297.019989013672	171.8055267333985	286.568817138672	290.4750366210939	-153.0241088867188	1090.959228515625	136.6757965087891	-199.8668060302736	949.3674316406255	144.1995391845704	-199.5537414550782	956.3808593750005	194.2951965332032	-182.1786346435547	639.603454589844	37.43110656738283	-408.9778747558596	415.5447082519534	82.30323791503909	
91	0.45	-80.77738189697268	1372.940063476563	154.3491210937501	-158.2252349853516	1280.3935546875	219.9810943603517	29.1350555419922	1285.513549804688	192.6565093994142	75.51358032226565	1104.914306640625	188.7839660644532	14.4499216079712	900.2254028320317	269.3411560058595	15.76039600372315	866.727905273438	53.1833190917969	-150.6626739501954	1002.685607910157	163.3741455078126	25.89209938049318	616.219909667969	319.1824340820314	74.09815979003909	555.483093261719	300.6095581054689	76.40740966796878	615.2329101562502	317.4584960937501	140.7295532226563	306.2239379882814	295.6507873535157	174.0539855957032	98.28879547119146	202.1851348876954	317.9144287109376	65.04406738281253	269.9336242675782	349.2410888671876	93.2380294799805	229.446746826172	-207.3454437255861	599.1998291015627	56.41550445556643	-128.4306793212891	597.5070800781252	41.60228729248048	-454.3487243652346	375.2028808593751	100.4547805786133	-407.084167480469	359.759735107422	97.66912841796881	-594.7167968750002	315.2890014648439	169.8069610595704	-564.2818603515627	141.8401184082032	174.3740386962891	-586.7900390625002	162.8894500732422	123.8584594726563	-165.0727081298829	969.2987670898442	123.1952133178712	-170.7978820800782	972.6741333007817	211.6087341308595	167.8297119140626	361.011932373047	296.0055541992189	185.4808654785157	284.5715942382814	288.8839111328126	-136.9824676513672	1089.960083007813	136.7197265625001	-183.3914184570313	947.6835937500005	143.6989898681641	-183.5012817382813	954.3737182617192	193.8386993408204	-161.6844024658204	636.1165161132815	37.22673797607423	-389.6558227539065	417.3022766113284	82.69972991943362	
92	0.455	-64.21891021728518	1371.415649414063	155.1858062744141	-141.9243469238282	1278.18310546875	220.9039611816407	45.4862518310547	1283.929809570313	193.1564178466798	91.70708465576175	1103.455322265625	188.6403808593751	30.52293777465822	899.164672851563	269.933807373047	33.03365707397462	866.1762695312505	53.55670166015628	-134.7315521240235	1000.528259277344	163.606918334961	43.31881713867189	614.9155273437502	319.432098388672	92.10611724853518	554.735778808594	300.174530029297	93.85990905761722	614.4743652343752	317.1514587402345	153.9525756835938	304.2888793945314	294.0917053222657	184.3510437011719	96.60797882080084	199.4835510253907	327.099090576172	60.57178497314456	267.5462951660157	358.8125000000001	88.14119720458987	227.5616607666017	-186.8514862060547	595.1387939453127	55.48827743530276	-107.5802841186524	594.1492309570315	42.33973693847658	-436.0713806152346	379.0382385253907	101.2878341674805	-389.3029785156252	361.940155029297	98.22566223144537	-578.7879028320315	322.9694824218751	171.7058105468751	-550.6280517578127	149.0207977294922	174.1930236816407	-572.978454589844	170.9802246093751	123.930534362793	-148.6504058837891	967.224243164063	123.1184310913087	-154.9803924560547	970.2913208007817	211.4252166748048	182.0418090820313	358.7034301757814	294.9802551269532	198.4825286865236	282.0660095214845	287.2365722656251	-120.9409484863282	1088.682739257813	136.7577514648438	-166.9927215576172	945.5398559570317	143.2430267333985	-167.5106506347657	951.8828735351567	193.4289703369142	-141.0747680664063	632.439636230469	36.91342926025392	-369.9202270507814	418.9415588378909	83.12680816650393	
93	0.46	-47.7068214416504	1369.656005859375	156.0337371826172	-125.6180801391602	1275.734252929688	221.913299560547	61.8363952636719	1282.094848632813	193.6163024902345	107.8965606689454	1101.609741210938	188.4676055908204	46.56617355346681	897.836547851563	270.628631591797	50.32520675659183	865.426635742188	53.95594024658206	-118.8214797973633	997.9098510742192	163.8782348632813	60.83137130737308	613.708435058594	319.5945129394532	110.178581237793	554.0434570312502	299.8204345703126	111.4160308837891	613.826599121094	316.6864318847657	166.5954589843751	302.0018920898439	292.5782775878907	193.4173736572267	94.45029449462893	196.7959899902345	335.0680236816407	55.51722335815433	265.1765136718751	367.2127380371095	82.28072357177737	225.4961395263673	-166.1991271972657	590.833190917969	54.49917984008792	-86.62371063232425	590.7268066406252	42.8330421447754	-417.2492980957034	382.6692504882814	102.1086425781251	-371.0320739746095	363.9874267578126	98.67523956298834	-562.0849609375002	330.2891845703126	173.7593688964844	-536.0042724609377	155.9629058837891	173.4736785888672	-558.2537231445315	179.0213317871094	123.6093750000001	-132.3185272216797	964.7104492187505	123.096290588379	-139.1821289062501	967.4249877929692	211.2393798828126	195.8180084228517	355.9072570800782	293.9753417968751	210.8037872314454	279.0602416992189	285.5658569335939	-104.8883666992188	1087.122192382813	136.7786407470704	-150.6623077392579	942.940063476563	142.8265075683594	-151.5677642822266	948.9253540039067	193.0589752197267	-120.3956680297852	628.610534667969	36.49537658691408	-349.7603454589845	420.4229125976565	83.57632446289065	
